HIERARCHY
ROOT ROOT
{
	OFFSET 0.000000 56.020000 -5.659234
	CHANNELS 6 Xposition Yposition Zposition Xrotation Yrotation Zrotation 
	JOINT C_spine0001_bind_JNT
	{
		OFFSET 0.000000 1.618999 0.000000
		CHANNELS 3 Xrotation Yrotation Zrotation
		JOINT C_spine0002_bind_JNT
		{
			OFFSET 0.000000 4.942001 0.000001
			CHANNELS 3 Xrotation Yrotation Zrotation
			JOINT C_spine0003_bind_JNT
			{
				OFFSET 0.000000 4.942001 -0.000000
				CHANNELS 3 Xrotation Yrotation Zrotation
				JOINT C_neck0001_bind_JNT
				{
					OFFSET 0.000000 17.026009 -0.000000
					CHANNELS 3 Xrotation Yrotation Zrotation
					JOINT C_neck0002_bind_JNT
					{
						OFFSET 0.000000 3.249985 0.000000
						CHANNELS 3 Xrotation Yrotation Zrotation
						JOINT C_head_bind_JNT
						{
							OFFSET 0.000000 5.278008 0.000000
							CHANNELS 3 Xrotation Yrotation Zrotation
							End Site
							{
								OFFSET 0.000000 0.000000 0.000000
							}
						}
					}
				}
				JOINT L_clavicle_bind_JNT
				{
					OFFSET 4.590000 12.067001 0.834000
					CHANNELS 3 Xrotation Yrotation Zrotation
					JOINT L_armUpper0001_bind_JNT
					{
						OFFSET 7.812635 0.512001 -3.452945
						CHANNELS 3 Xrotation Yrotation Zrotation
						JOINT L_armLower0001_bind_JNT
						{
							OFFSET 15.265892 -6.552116 -0.058157
							CHANNELS 3 Xrotation Yrotation Zrotation
							JOINT L_hand0001_bind_JNT
							{
								OFFSET 14.747667 -6.369995 5.049225
								CHANNELS 3 Xrotation Yrotation Zrotation
								End Site
								{
									OFFSET 0.000000 0.000000 0.000000
								}
							}
						}
					}
				}
				JOINT R_clavicle_bind_JNT
				{
					OFFSET -4.590000 12.067001 0.834000
					CHANNELS 3 Xrotation Yrotation Zrotation
					JOINT R_armUpper0001_bind_JNT
					{
						OFFSET -7.812635 0.512001 -3.452945
						CHANNELS 3 Xrotation Yrotation Zrotation
						JOINT R_armLower0001_bind_JNT
						{
							OFFSET -15.265890 -6.552124 -0.058160
							CHANNELS 3 Xrotation Yrotation Zrotation
							JOINT R_hand0001_bind_JNT
							{
								OFFSET -14.746784 -6.369629 5.048937
								CHANNELS 3 Xrotation Yrotation Zrotation
								End Site
								{
									OFFSET 0.000000 0.000000 0.000000
								}
							}
						}
					}
				}
			}
		}
	}
	JOINT C_pelvis0001_bind_JNT
	{
		OFFSET -0.000000 0.000000 0.000000
		CHANNELS 3 Xrotation Yrotation Zrotation
		JOINT L_legUpper0001_bind_JNT
		{
			OFFSET 6.599999 -6.027000 0.539000
			CHANNELS 3 Xrotation Yrotation Zrotation
			JOINT L_legLower0001_bind_JNT
			{
				OFFSET -0.140713 -19.187443 0.040261
				CHANNELS 3 Xrotation Yrotation Zrotation
				JOINT L_foot0001_bind_JNT
				{
					OFFSET -0.132215 -18.028637 -1.138370
					CHANNELS 3 Xrotation Yrotation Zrotation
					JOINT L_foot0002_bind_JNT
					{
						OFFSET 0.007014 -4.693133 9.886524
						CHANNELS 3 Xrotation Yrotation Zrotation
						End Site
						{
							OFFSET 0.000000 0.000000 0.000000
						}
					}
				}
			}
		}
		JOINT R_legUpper0001_bind_JNT
		{
			OFFSET -6.599999 -6.027000 0.539000
			CHANNELS 3 Xrotation Yrotation Zrotation
			JOINT R_legLower0001_bind_JNT
			{
				OFFSET 0.140710 -19.187164 0.040550
				CHANNELS 3 Xrotation Yrotation Zrotation
				JOINT R_foot0001_bind_JNT
				{
					OFFSET 0.132215 -18.028633 -1.138362
					CHANNELS 3 Xrotation Yrotation Zrotation
					JOINT R_foot0002_bind_JNT
					{
						OFFSET -0.007014 -4.693128 9.886505
						CHANNELS 3 Xrotation Yrotation Zrotation
						End Site
						{
							OFFSET 0.000000 0.000000 0.000000
						}
					}
				}
			}
		}
	}
}
MOTION
Frames: 11
Frame Time: 0.033333
0.000000 49.428879 0.000000 0.029071 2.602561 -0.025004 -0.845056 -3.163743 0.450387 0.960197 0.671759 -1.114377 0.210250 0.984368 0.128494 -0.815194 -0.045646 0.194981 0.887421 -1.873685 -0.484302 3.881367 0.183927 -1.155329 -0.651674 14.209813 -2.612094 1.850791 15.600566 -63.597984 11.515400 4.954712 4.868890 2.166883 -27.197865 -20.443586 -2.299938 -13.377908 0.859992 2.103351 -6.925028 62.105350 13.327481 -11.609138 -2.561911 -1.634893 18.551607 32.721058 -0.441688 -3.681358 0.746061 2.537843 0.649488 -0.813289 1.801809 4.117175 -0.282827 -2.364164 -2.985742 -1.004617 -1.246691 -0.590014 -0.206974 0.960674 0.090324 -4.734667 4.986924 -5.353936 0.844908 -3.941521 -0.511753 4.199530 -1.423106 0.761151 -0.377281 
0.561385 49.431461 0.251352 0.005043 2.994417 -0.015081 -0.490398 -3.495254 0.268299 0.590739 0.731844 -1.103303 0.393455 0.910752 -0.099069 -1.444252 -0.219084 0.079331 1.251040 -2.090549 -0.136363 4.457409 0.019293 -1.020006 -1.005509 14.174986 -2.037685 1.876583 16.142797 -63.644886 12.323715 4.217252 4.466682 2.355957 -26.525839 -19.475666 -2.376547 -13.499766 1.084311 2.468325 -5.923452 62.465069 12.961852 -10.211068 -3.369967 -2.410408 17.411772 33.049812 -0.450374 -3.977964 0.545197 2.498614 0.419581 -1.252664 2.386553 5.185860 -0.051454 -3.017275 -3.556913 -0.999332 -1.156562 -0.405631 -0.021940 1.751364 -0.075920 -5.395329 4.220446 -5.581541 1.050024 -4.068440 -0.400182 4.544148 -1.132808 0.676535 -0.102458 
0.418359 49.467003 0.280475 0.005262 3.216936 -0.002770 -0.169703 -3.485507 0.393335 0.165639 0.748729 -1.098737 0.453390 0.906247 -0.189322 -1.521298 -0.174312 0.122509 1.170567 -2.325788 -0.030178 4.437211 -0.109453 -0.961590 -0.968085 14.269178 -2.091041 1.851512 16.133961 -63.845798 12.446226 4.109163 4.595082 1.886095 -26.651901 -20.113918 -2.477305 -13.554847 1.237250 2.850050 -6.292083 62.333950 13.259164 -9.851750 -3.544354 -2.416167 17.311262 33.212170 -0.301842 -3.783380 0.664195 2.632055 0.164554 -1.078089 2.281198 4.975190 -0.310818 -3.022174 -3.307018 -0.884711 -1.226674 -0.614341 -0.162150 1.469855 -0.132318 -5.358661 4.323604 -5.347119 0.925721 -4.192946 -0.636016 4.556997 -1.024914 0.608198 -0.245623 
0.358078 49.471615 0.273778 0.008839 3.098013 -0.011725 -0.154234 -3.356454 0.373807 0.247776 0.877059 -1.084588 0.387364 1.002229 -0.138328 -1.471033 -0.221043 0.056693 1.126216 -2.195775 -0.044612 4.174882 -0.274986 -0.847495 -0.732908 14.178365 -2.127879 1.801448 16.001486 -64.051666 12.352614 4.082980 4.737921 1.921190 -26.714151 -20.643774 -2.450106 -13.637521 1.235458 2.924763 -6.261991 62.405735 13.677863 -9.668682 -3.636041 -2.385568 17.017109 33.310925 -0.152263 -3.597104 0.749234 2.475290 0.115007 -0.896338 2.279034 4.919600 -0.503725 -3.043932 -3.144065 -0.915400 -1.273848 -0.726600 -0.111815 1.419651 0.077719 -5.423355 4.051563 -5.442026 0.932676 -4.178838 -0.673617 4.478014 -0.819385 0.647704 -0.262024 
0.364266 49.486427 0.272477 0.007637 3.095457 -0.003083 -0.314976 -3.298154 0.444668 0.334730 0.852550 -1.093892 0.348400 1.032886 -0.163957 -1.288365 -0.236661 0.176008 1.137942 -2.196494 -0.018996 4.074144 -0.165667 -0.916567 -0.580450 14.236117 -2.239186 1.970396 15.993034 -64.100876 12.311021 4.145914 4.811759 2.294078 -26.748541 -20.684151 -2.445712 -13.608924 1.045374 3.179122 -6.213591 62.560833 13.753703 -9.725918 -3.613230 -2.217353 16.948982 33.100609 -0.188789 -3.593780 0.775796 2.389251 0.218019 -0.892091 2.393277 4.500045 -0.570875 -2.998666 -2.918918 -0.794803 -1.249153 -0.602250 -0.188220 1.402454 0.180703 -5.459257 4.277847 -5.350664 0.945318 -4.395474 -0.881331 4.510629 -0.726379 0.540147 -0.259561 
0.366717 49.458218 0.251720 0.003703 2.938721 -0.005379 -0.289257 -3.203137 0.481128 0.432330 0.933252 -1.138967 0.398148 1.116364 -0.126483 -1.193070 -0.227661 0.245575 1.034547 -2.366041 -0.100757 3.947942 -0.259237 -0.864944 -0.549475 14.091047 -2.184251 2.087394 16.130865 -64.196648 12.165151 4.094808 4.657074 2.248260 -26.669994 -20.636835 -2.516307 -13.749379 0.996482 3.212713 -6.296134 62.556496 13.946780 -9.498534 -3.522604 -2.308061 16.562830 33.103909 -0.034635 -3.489582 0.823724 2.032655 0.233149 -0.877786 2.698228 4.361542 -0.665790 -3.083885 -2.812309 -0.741129 -1.216861 -0.651038 -0.199408 1.102285 0.321251 -5.516333 4.639493 -5.384780 0.909452 -4.621554 -1.001989 4.585930 -0.710707 0.719466 -0.276442 
0.382949 49.457584 0.206894 0.012452 2.765421 -0.009313 -0.322731 -3.106968 0.531395 0.571872 0.929378 -1.179662 0.489795 1.058547 -0.122697 -1.297424 -0.183471 0.325844 1.121097 -2.338015 -0.118609 4.060925 -0.245355 -0.900993 -0.541430 14.201550 -2.190089 2.125750 16.413490 -64.183571 11.910555 4.128421 4.613871 2.440296 -26.665905 -20.538919 -2.575980 -13.586811 0.915820 3.142678 -6.308314 62.522858 13.760007 -9.543791 -3.477970 -2.441416 16.483931 33.263924 -0.074974 -3.353146 0.849215 1.904649 0.284148 -0.976804 2.861457 4.251335 -0.686905 -3.063214 -2.874994 -0.622695 -1.184804 -0.533446 -0.211323 0.893270 0.411957 -5.612954 4.892150 -5.415197 1.027910 -4.680801 -0.969319 4.535222 -0.643561 0.611348 -0.263832 
0.407384 49.444351 0.164424 0.004814 2.655424 -0.008728 -0.278288 -3.097902 0.597212 0.684798 1.010304 -1.260071 0.459225 1.153589 -0.094593 -1.102622 -0.312003 0.368232 1.009898 -2.417740 -0.116583 4.056343 -0.176225 -0.938975 -0.497690 14.134173 -2.219164 2.288287 16.588223 -64.187653 11.519512 4.305049 4.431467 2.602618 -26.540590 -20.306433 -2.571895 -13.711246 0.825109 3.266469 -6.305466 62.600300 13.627703 -9.451077 -3.398557 -2.475249 16.345343 33.295383 0.031409 -3.407033 0.894709 1.650557 0.241444 -0.992636 3.049322 4.416320 -0.753942 -3.059240 -2.843852 -0.612514 -1.195102 -0.492730 -0.239502 0.698540 0.554294 -5.696458 5.054894 -5.462274 0.991425 -4.786902 -1.014793 4.676604 -0.599147 0.678529 -0.257545 
0.438965 49.428818 0.121240 0.009247 2.582514 -0.005609 -0.225919 -3.129313 0.618862 0.759639 0.994223 -1.294490 0.585970 1.106557 -0.111890 -1.313391 -0.247204 0.458016 1.114701 -2.271466 -0.163768 4.309169 -0.257398 -0.907351 -0.575225 14.262263 -2.195436 2.410887 16.773443 -64.136597 11.225212 4.329728 4.204199 2.829981 -26.513334 -20.054447 -2.672973 -13.616807 0.832249 3.167976 -6.353817 62.508869 13.567607 -9.380761 -3.190555 -2.635741 16.225775 33.339592 -0.002243 -3.384725 0.869040 1.344209 0.138495 -1.073585 3.511528 4.544571 -0.763179 -3.159964 -2.864560 -0.526294 -1.251761 -0.532658 -0.244692 0.600923 0.578159 -5.682122 5.242853 -5.350047 0.916615 -4.870950 -0.909440 4.784712 -0.628123 0.642846 -0.323014 
0.480917 49.435223 0.075400 0.011116 2.491743 -0.008675 -0.235965 -3.144061 0.615876 0.832621 1.007877 -1.300833 0.603434 1.151088 -0.105564 -1.258823 -0.270236 0.466391 1.100087 -2.247612 -0.163734 4.451980 -0.321838 -0.902117 -0.520210 14.214286 -2.198150 2.372533 16.991577 -64.114510 11.084328 4.415565 4.179351 2.770161 -26.369244 -19.934029 -2.658253 -13.624518 0.820128 3.222472 -6.387161 62.536873 13.466951 -9.303910 -3.127336 -2.634602 16.239334 33.306725 -0.012073 -3.435266 0.871314 1.185044 0.098261 -1.103964 3.697384 4.689553 -0.785860 -3.191001 -2.845430 -0.508233 -1.247371 -0.533068 -0.266760 0.456847 0.623998 -5.733225 5.519070 -5.193501 0.879579 -4.973188 -0.903956 4.849729 -0.604472 0.700908 -0.302281 
0.537599 49.431812 0.023525 0.010071 2.498767 -0.009739 -0.219258 -3.316324 0.613883 0.839696 1.027768 -1.400978 0.686542 1.123223 -0.100373 -1.234375 -0.242154 0.391416 1.131169 -2.205815 -0.106940 4.507895 -0.306540 -0.796069 -0.643455 14.182783 -2.096097 2.491555 17.242411 -64.019417 10.847968 4.435955 4.009511 2.854298 -26.338724 -19.812756 -2.652980 -13.561332 0.879948 3.172651 -6.395755 62.409191 13.367591 -9.204290 -3.007923 -2.597708 16.335192 33.376244 -0.102330 -3.591651 0.854235 1.016326 0.134156 -1.186471 3.944272 4.781280 -0.763631 -3.143638 -2.861470 -0.482433 -1.273587 -0.501125 -0.265582 0.453139 0.650931 -5.858238 5.745378 -5.205200 0.849899 -5.013936 -0.741142 4.991493 -0.645469 0.715040 -0.284686 
